<?xml version="1.0" standalone="no"?><!DOCTYPE svg PUBLIC "-//W3C//DTD SVG 1.1//EN" "http://www.w3.org/Graphics/SVG/1.1/DTD/svg11.dtd"><svg t="1579571768112" class="icon" viewBox="0 0 1024 1024" version="1.1" xmlns="http://www.w3.org/2000/svg" p-id="2212" width="32" height="32" xmlns:xlink="http://www.w3.org/1999/xlink"><defs><style type="text/css"></style></defs><path d="M504.832 144h24.08c6.608 0 11.952 4.48 11.952 9.984v80.208c0 5.504-5.344 9.984-11.952 9.984h-24.08c-6.608 0-11.968-4.48-11.968-9.984V153.984c0-5.52 5.36-9.984 11.968-9.984z m263.248 99.072l17.024 17.024c4.672 4.672 5.28 11.632 1.376 15.536L729.6 332.512c-3.904 3.904-10.864 3.296-15.52-1.376l-17.04-17.024c-4.672-4.672-5.28-11.632-1.376-15.552l56.88-56.864c3.904-3.92 10.864-3.296 15.52 1.376z m110.528 261.76v24.08c0 6.608-4.48 11.952-9.984 11.952h-80.208c-5.504 0-9.984-5.344-9.984-11.952v-24.08c0-6.608 4.48-11.968 9.984-11.968h80.208c5.52 0 9.984 5.36 9.984 11.968z m-93.504 257.68l-17.024 17.024c-4.672 4.672-11.632 5.28-15.536 1.376l-56.88-56.864c-3.904-3.92-3.296-10.88 1.376-15.536l17.024-17.04c4.672-4.672 11.632-5.28 15.536-1.376l56.88 56.88c3.92 3.904 3.296 10.88-1.376 15.536z m-256.192 116.096h-24.08c-6.608 0-11.968-4.48-11.968-9.984v-80.208c0-5.504 5.36-9.984 11.968-9.984h24.08c6.608 0 11.952 4.48 11.952 9.984v80.208c0 5.52-5.344 9.984-11.952 9.984z m-268.528-100.448l-14.272-14.272a10.016 10.016 0 0 1 0-14.16l56.88-56.88a10.016 10.016 0 0 1 14.16 0l14.272 14.272a10.016 10.016 0 0 1 0 14.176l-56.864 56.864a10.016 10.016 0 0 1-14.176 0zM144 528.912v-24.08c0-6.608 4.48-11.968 9.984-11.968h80.208c5.504 0 9.984 5.36 9.984 11.968v24.08c0 6.608-4.48 11.952-9.984 11.952H153.984c-5.52 0-9.984-5.344-9.984-11.952z m104.64-268.8l17.024-17.04c4.672-4.672 11.632-5.28 15.536-1.376l56.88 56.864c3.904 3.92 3.296 10.88-1.376 15.552l-17.04 17.024c-4.672 4.672-11.616 5.28-15.52 1.376l-56.88-56.88c-3.92-3.904-3.296-10.88 1.36-15.52zM515.12 685.92c96.432 0 174.608-78.176 174.608-174.608 0-96.448-78.176-174.624-174.608-174.624S340.528 414.88 340.528 511.312c0 96.432 78.176 174.608 174.608 174.608z m0 48c-122.944 0-222.608-99.68-222.608-222.608 0-122.944 99.664-222.624 222.608-222.624s222.608 99.68 222.608 222.624c0 122.928-99.68 222.608-222.608 222.608zM478.288 427.52a82.8 82.8 0 0 0-1.68 16.64c0 43.936 34.32 79.552 76.64 79.552a74.624 74.624 0 0 0 48.544-17.984c4.544-3.872 14.72-2.4 15.392 3.184 0.592 4.848 0.896 9.792 0.896 14.8 0 64.224-50.144 116.272-112 116.272s-112-52.048-112-116.272c0-48.064 28.096-89.312 68.176-107.024 6.976-3.088 17.312 4.576 16.032 10.832z" p-id="2213" fill="#707070"></path></svg>