<svg width="16" height="16" viewBox="0 0 1024 1024" xmlns="http://www.w3.org/2000/svg"><path fill="#888" d="M164.655 68.977zm701.666 700.172q0 59.804-36.377 94.437t-96.684 34.632H297.716q-60.293 0-96.684-34.632t-36.377-94.437q0-26.414 1.744-51.573t6.977-54.321 13.2-54.069 21.432-48.586 30.892-40.367 42.614-26.665 55.563-9.963q4.479 0 20.931 10.717t37.131 23.916 53.819 23.916 66.531 10.717 66.531-10.717 53.819-23.916 37.131-23.916 20.931-10.717q30.405 0 55.563 9.963t42.614 26.665 30.893 40.367 21.432 48.586 13.2 54.069 6.977 54.321 1.744 51.573zM706.846 324.131q0 79.242-56.065 135.292t-135.293 56.065-135.293-56.065-56.065-135.292 56.065-135.293 135.293-56.065 135.293 56.065 56.065 135.293z"/></svg>
